<svg xmlns="http://www.w3.org/2000/svg" viewBox="0 0 24 24" fill="none" stroke="currentColor" stroke-width="2" stroke-linecap="round" stroke-linejoin="round"><path d="M20.52 3.48A11.93 11.93 0 0 0 12 0C5.37 0 0 5.37 0 12a11.92 11.92 0 0 0 1.64 6L0 24l6.18-1.62A12 12 0 1 0 20.52 3.48zM12 22a9.94 9.94 0 0 1-5.1-1.4l-.36-.22-3.67.96.98-3.58-.24-.37A10 10 0 1 1 22 12a10 10 0 0 1-10 10zm5.45-7.55c-.3-.15-1.77-.87-2.05-.97s-.47-.15-.67.15-.77.97-.94 1.17-.35.22-.65.07a8.18 8.18 0 0 1-2.4-1.48 9 9 0 0 1-1.66-2.07c-.18-.3 0-.46.13-.61.13-.13.3-.35.45-.52a2.3 2.3 0 0 0 .3-.5.55.55 0 0 0 0-.52c-.07-.15-.67-1.62-.92-2.22s-.5-.5-.67-.5h-.57a1.1 1.1 0 0 0-.8.37 3.36 3.36 0 0 0-1.05 2.5 5.83 5.83 0 0 0 1.22 3.1 13.32 13.32 0 0 0 5.1 4.5c.71.3 1.27.48 1.7.62a4.1 4.1 0 0 0 1.88.12 3.07 3.07 0 0 0 2-1.42 2.5 2.5 0 0 0 .17-1.42c-.07-.12-.27-.2-.57-.35z"/></svg>